#tb 0: 1001/30000
#media_type 0: video
#codec_id 0: rawvideo
#dimensions 0: 128x128
#sar 0: 4/3
0,          0,          0,        1,    24576, 0xab918711
0,          0,          0,        1,    24576, 0x660eb291
0,          0,          0,        1,    24576, 0xb2d7c37f
0,          0,          0,        1,    24576, 0xc8b5d6ba
0,          0,          0,        1,    24576, 0x0108f916
